<svg xmlns="http://www.w3.org/2000/svg" width="860.2" height="188.7">
  <path d="M64.9 54.7C28.5 54.7 0 82.8 0 118.8c0 35.9 28.3 64 64.4 64 13.2 0 25.9-4.6 36-12.9V180h29.1v-61.2c0-36-28.4-64.1-64.6-64.1zm0 100.7c-19.7 0-35.1-16.1-35.1-36.6 0-20.4 15.7-37 35.1-37 9.2 0 17.9 3.8 24.6 10.7 6.8 7 10.5 16.4 10.5 26.3-.1 20.2-15.8 36.6-35.1 36.6zm450.6-20.5l-.9 1.6-.5.9c-6.9 11.8-17.3 17.5-31.8 17.5-10.1 0-19.3-3.8-26-10.5l86.2-34.4 2.6-1-.6-2.7-.4-1.5c-7-29.5-32.9-50.2-62.9-50.2-35.8 0-64.9 28.8-64.9 64.2 0 35.8 29 63.8 66 63.8 29.4 0 51.2-14.5 61.3-40.8l1-2.5 1.7-4.4h-30.8zM446 118.6c0-22.5 18.2-36.4 35.1-36.4 9.8 0 19.2 4.6 25.9 12.5l-13.4 5.3c-15.9 6.4-38.4 15.3-47.7 19 .1-.1.1-.2.1-.4zm-59.8-45.8c-12-11.7-28.2-18.2-45.6-18.2-13 0-25.8 4.4-36 12.3V7.5h-29.1v110.9c0 17.5 6.7 33.7 18.8 45.7 12.1 11.9 28.4 18.5 46.1 18.5 36.2 0 64.6-28.2 64.6-64.2 0-17.5-6.7-33.7-18.8-45.6zm-45.9 82.6c-9.2 0-17.9-3.8-24.6-10.8-6.8-7.1-10.5-16.4-10.5-26.3 0-20.2 15.7-36.6 35.1-36.6 19.2 0 34.9 16.4 34.9 36.6 0 20.9-15.3 37.1-34.9 37.1zm338.2 24.7c-12.3 0-22.9-3.9-30.7-11.2-8.9-8.3-13.6-20.4-13.6-35.1V7.5h29.5v125.7c0 6.6 1.7 11.6 5 14.8 3.7 3.6 8.9 4.4 12.6 4.4h.9l1.9-.1 3.3-.1v27.4l-3 .2-1.7.1c-1.3.2-2.8.2-4.2.2zm181.7-.1h-29.5v-74c0-14.5-9.8-23.9-24.9-23.9-15.3 0-25.2 9.4-25.2 23.9v74H751v-73.3c0-30.6 22.5-52 54.7-52 32.1 0 54.5 21.4 54.5 52V180zm-129.3 0h-29.8V57.5h29.8v119.3zm-144 0h-29.5v-71.8c0-16.4 5.6-30.1 16.2-39.9 9.5-8.7 22-13.3 36.2-13.3 2 0 4 .1 6 .3l1.7.2 2.9.3V83l-3.4-.2-1.9-.1c-.8 0-1.5-.1-2.3-.1-8.1 0-14.7 2.2-19.1 6.4-4.5 4.2-6.8 10.7-6.8 18.7V180zm-358.7 0h-29.5v-71.8c0-16.4 5.6-30.1 16.2-39.8 9.5-8.7 22-13.3 36.2-13.3 2 0 4 .1 6 .3l1.7.2 2.9.3V83l-3.4-.2-1.9-.1c-.8 0-1.5-.1-2.3-.1-8.1 0-14.7 2.2-19.1 6.4-4.4 4.2-6.8 10.7-6.8 18.7V180zm-49.7 0h-29.8V57.5h29.8v119.3zM716.2 47.8c-9.2 0-16.7-7.5-16.7-16.7s7.5-16.7 16.7-16.7 16.7 7.5 16.7 16.7-7.5 16.7-16.7 16.7zm-552.4 0c-9.2 0-16.7-7.5-16.7-16.7s7.5-16.7 16.7-16.7 16.7 7.5 16.7 16.7c-.1 9.2-7.5 16.7-16.7 16.7z"/>
</svg>
