<svg xmlns="http://www.w3.org/2000/svg" width="92" height="44">
  <path d="M10.6 44.663l5.5-13.2 5.5 13.2H25l7.2-18.5h-4l-5 12.9-5.3-12.9h-3.6l-5.4 12.9-4.9-12.9H0l7.2 18.5h3.4zm25.6-18.5v18.5h11.9v-3.7h-8.2v-3.7h8.2v-3.7h-8.2v-3.7h8.2v-3.7H36.2zm28.5 7.9c-.4.5-1 .7-1.8.7h-4.2v-4.9h4.2c.8 0 1.4.2 1.8.7.4.5.6 1.1.6 1.7.1.7-.1 1.3-.6 1.8zm-5.9 10.6v-6.2h2.3l4 6.2h4.5l-4.4-6.6c.6-.2 1.1-.5 1.6-.9s.9-.8 1.2-1.3c.3-.5.6-1.1.8-1.7.2-.5.3-1.2.3-1.8 0-.9-.2-1.7-.5-2.4s-.7-1.4-1.3-2c-.5-.6-1.2-1-2-1.3-.8-.3-1.6-.5-2.5-.5h-7.9v18.5h3.9zm27.8 0h4.7l-8-10.4 8-8.1h-5.2l-7.8 7.8v-7.8h-3.7v18.5h3.7v-5.4l2.3-2.3 6 7.7zM10.3.963v18.5H17c1.3 0 2.5-.2 3.6-.7 1.1-.5 2.1-1.1 2.9-1.9.8-.8 1.4-1.8 1.9-2.9.5-1.1.7-2.4.7-3.7 0-1.3-.2-2.6-.7-3.7-.5-1.1-1.1-2.1-1.9-2.9-.8-.8-1.8-1.5-2.9-1.9-1.1-.5-2.3-.8-3.6-.8h-6.7zm11.7 11.5c-.3.7-.6 1.3-1.1 1.8-.5.5-1 .9-1.7 1.2-.7.2-1.4.3-2.2.3h-3v-11.1h3c.8 0 1.5.1 2.2.4.7.3 1.2.7 1.7 1.2s.8 1.1 1.1 1.8.4 1.4.4 2.2c0 .8-.2 1.5-.4 2.2zm9.6-11.5v18.5h11.9v-3.7h-8.2v-3.7h8.2v-3.7h-8.2v-3.7h8.2v-3.7H31.6zm32.4 0v12.1L54 .963h-3.2v18.5h3.7v-12.1l10 12.1h3.2V.963H64zm22.6 18.5h4.7l-8-10.4 8-8.1h-5.2l-7.8 7.8v-7.8h-3.7v18.5h3.7v-5.4l2.3-2.3 6 7.7z"/>
</svg>
