<svg xmlns="http://www.w3.org/2000/svg" width="283.5" height="230.2">
  <path d="M259.8 193.5h5.4v-22.1l10.3 22.1h7.8v-26.6H278v21l-10-21h-8.2zm-10-23.6c-2.6-2.9-6.5-3.6-9.3-3.6-9.5 0-12.7 7.1-12.7 14.1 0 2.4.4 6.8 3.3 9.9 2.5 2.4 5.9 3.7 9.4 3.6 2.2 0 6.5-.5 9.4-3.8 2.2-2.4 3.3-6.5 3.3-10.3.1-3.6-1.1-7.1-3.4-9.9zm-4.3 17.4c-1.1 1.7-3 2.6-4.9 2.5-1.9.2-3.7-.6-4.8-2.1-1.6-2.1-2-4.9-2-7.4 0-3 .4-5.8 1.9-7.7 1.2-1.5 3-2.3 4.9-2.2 2.7 0 4.9 1.4 6 4.7.5 1.5.7 3.1.7 4.7 0 4.2-1 6.2-1.8 7.5zm-30.2-20.4h5.7v26.6h-5.7zm-29 17.9c0 2.6.1 9.1 10.3 9.1 7.3 0 11.3-3.9 11.3-8.6 0-5.2-4.5-6.4-9.1-7.5-3.8-1-5.8-1.4-5.8-3.9 0-2.2 1.7-3.6 4.4-3.6 2.2-.2 4.1 1.4 4.3 3.6v.4h5.5c.1-1.8-.4-3.5-1.5-4.9-2-2.5-5.3-3.1-8-3.1-7.4 0-10.5 3.9-10.5 8.2 0 4.6 3.5 6.5 9.8 8 3.4.8 5 1.2 5 3.6s-2 3.7-5 3.7c-4.9 0-4.8-3.8-4.8-5h-5.9zm-13.2-17.9h5.7v26.6h-5.7zm-32.6 0l9.8 26.6h6.3l9.8-26.6h-5.6l-7.1 21-6.9-21zm-23.2 26.6h17v-3.2h-13.4v-8.9h12.4v-3.1h-12.4V170H134v-3.1h-16.7zm-27.2 0h3.6v-14.1l12.3 14.1h5.2L98 178.8l11.9-11.9h-5.1l-11.1 11.7v-11.7h-3.6zm-7.2-19.4c-.5-6.1-5.8-7.6-9.6-7.6-9.5 0-11.7 8.4-11.7 14 0 5.2 1.8 13.4 11.2 13.4 4.6 0 9.4-2.2 10-7.4h-4c-.1 1-.6 2-1.3 2.8-1.2 1.1-2.7 1.7-4.3 1.6-6.1 0-7.5-5.4-7.5-10.4 0-4.4 1.1-11 7.6-11 5.1 0 5.6 3.7 5.8 4.6h3.8zM48 166.9h-4l-11.2 26.6h3.8l2.9-6.9h12.4l2.9 6.9h4L48 166.9zm-7.2 16.7l5.2-13.1 4.9 13.1H40.8zM0 193.5h3.6v-23.8l8.4 23.8h3.5l8.7-23.9v23.9h3.7v-26.6h-6.1l-7.7 22-7.6-22H0zM0 0h39.4v75.7H0zm97.6 0H137v75.7H97.6zm48.8 0h39.4v75.7h-39.4zM244 0h39.4v75.7H244zm-48.8 0h39.4v75.7h-39.4zm0 85.1h39.4v36.5h-39.4z"/>
</svg>

