<svg xmlns="http://www.w3.org/2000/svg" width="1180.45" height="201.64">
  <path d="M1090.23 147.3h24.5V93.41a33.7 33.7 0 011.43-9.7 26.54 26.54 0 014.18-8.47 21.7 21.7 0 017-6 21 21 0 0110.21-2.35q5.92 0 9.49 2.45a17.66 17.66 0 015.61 6.23 24.37 24.37 0 012.65 8.47 70 70 0 01.61 9v54.26h24.49V86.06a53.41 53.41 0 00-2-14.7 36 36 0 00-6.4-12.65 32.42 32.42 0 00-11.23-8.88 36.83 36.83 0 00-16.43-3.37 32.55 32.55 0 00-19.08 5.61q-8.07 5.62-11.33 13h-.41V49.32h-23.27zm-98.55-60.73a31.58 31.58 0 015.21-10.1 26.14 26.14 0 018.78-7.25 30.44 30.44 0 0125.31 0 26.19 26.19 0 018.77 7.25 31.65 31.65 0 015.21 10.1 38.19 38.19 0 011.73 11.33 39.17 39.17 0 01-1.73 11.43 31.47 31.47 0 01-5.21 10.21 27.29 27.29 0 01-8.77 7.35 29.47 29.47 0 01-25.31 0 27.23 27.23 0 01-8.78-7.35 31.39 31.39 0 01-5.21-10.21 39.07 39.07 0 01-1.73-11.43 38.09 38.09 0 011.73-11.33m-22.45 32.56a50.16 50.16 0 0011.33 16.43 51.65 51.65 0 0016.94 10.72 57.81 57.81 0 0041.64 0 51.63 51.63 0 0016.94-10.72 50.21 50.21 0 0011.33-16.43 52.61 52.61 0 004.18-21.23 51.88 51.88 0 00-4.18-21.13 49.35 49.35 0 00-11.33-16.23 49.92 49.92 0 00-16.94-10.41 60.82 60.82 0 00-41.64 0 49.94 49.94 0 00-16.94 10.41 49.3 49.3 0 00-11.33 16.23A51.75 51.75 0 00965 97.9a52.48 52.48 0 004.19 21.23m-45.54-93.26a13 13 0 009.91 4.18 13.9 13.9 0 0010.09-4 13.4 13.4 0 004.09-10 13.4 13.4 0 00-4.09-10 13.91 13.91 0 00-10.09-4 13 13 0 00-9.91 4.18 13.9 13.9 0 00-3.91 9.82 13.88 13.88 0 003.91 9.82M921.5 147.3H946v-98h-24.5zm-19.75-85.94a35 35 0 00-16-11.23A60.22 60.22 0 00865 46.46a55.54 55.54 0 00-14.29 1.84 39.94 39.94 0 00-12.45 5.61 29 29 0 00-8.88 9.7A28 28 0 00826 77.69a25 25 0 002.45 11.63 23.56 23.56 0 006.55 7.87 34.88 34.88 0 009.29 5.1 80.41 80.41 0 0010.71 3.16q11.22 2.66 16.84 5.31a9.05 9.05 0 015.61 8.78A10.07 10.07 0 01876 125a10.52 10.52 0 01-3.78 3.57 18.42 18.42 0 01-5.1 1.94 25.07 25.07 0 01-5.41.61 30.38 30.38 0 01-14.49-3.47 32.14 32.14 0 01-10.61-8.78L820.51 134a46.91 46.91 0 0018 11.94 61.11 61.11 0 0022.25 4.19 67.77 67.77 0 0015.41-1.74 37.8 37.8 0 0013.06-5.61 28.66 28.66 0 009-10.1q3.36-6.23 3.37-15.21a24.15 24.15 0 00-2.86-12.14 26.71 26.71 0 00-7.51-8.33A40.7 40.7 0 00881 91.57a90.05 90.05 0 00-11.12-3.27 98.84 98.84 0 01-15.82-4.8 8.19 8.19 0 01-5.41-8.06 8.44 8.44 0 014.9-8.17 23.83 23.83 0 0110.82-2.45A25.3 25.3 0 01876.85 68a28.31 28.31 0 019 7.45zM781.69 25.87a13 13 0 009.91 4.18 13.9 13.9 0 0010.09-4 13.4 13.4 0 004.09-10 13.4 13.4 0 00-4.09-10 13.92 13.92 0 00-10.09-4 13 13 0 00-9.91 4.18 13.9 13.9 0 00-3.91 9.82 13.89 13.89 0 003.91 9.82m-2.16 121.43H804v-98h-24.47zm-83.57 0h26.13l39-98h-25.94l-25.92 71.44h-.41L683.1 49.32h-26.74zM619.22 106.07q0 11.63-6.53 18.37t-19.19 6.74a31.24 31.24 0 01-6.12-.61 17.75 17.75 0 01-5.51-2 11.71 11.71 0 01-4-3.78 10.41 10.41 0 01-1.53-5.82 10.85 10.85 0 013.67-8.68 25.76 25.76 0 019.18-4.9 54.19 54.19 0 0112-2.25q6.53-.51 12.45-.51h5.51zm.41 41.23h22.86V87.7a57.48 57.48 0 00-1.94-14.7 34.38 34.38 0 00-6.84-13.27 35.09 35.09 0 00-13.37-9.59q-8.47-3.67-21.53-3.67a65.81 65.81 0 00-22.15 3.88A55.34 55.34 0 00557.37 62L570 76.88a40.1 40.1 0 0111.83-8 35.48 35.48 0 0114.9-3.27A28 28 0 01612.59 70q6.63 4.39 6.63 13.57v2.45q-11.43 0-23.37 1.12a90.53 90.53 0 00-21.74 4.59 40.25 40.25 0 00-16 10q-6.23 6.53-6.23 17.55 0 8.58 3.57 14.39a29.6 29.6 0 009 9.39 36.73 36.73 0 0011.84 5.1 53.23 53.23 0 0012.35 1.53 40.2 40.2 0 0018.57-4.18q8.16-4.18 11.84-10.72h.61zM492.56 68.91a27.11 27.11 0 019.08 6.71 30.38 30.38 0 015.82 10 35.4 35.4 0 012 12 33.91 33.91 0 01-2 11.7 30.57 30.57 0 01-5.82 9.87 27.83 27.83 0 01-21.33 9.36 25.56 25.56 0 01-11.74-2.64 27 27 0 01-8.78-7 32.65 32.65 0 01-5.51-9.87 33.91 33.91 0 01-1.94-11.39 37.61 37.61 0 011.94-12.21 29.68 29.68 0 015.51-9.87 25.78 25.78 0 018.78-6.61 27.83 27.83 0 0111.94-2.44 28.52 28.52 0 0112 2.44m16.99-19.64V64h-.41a32.77 32.77 0 00-14.29-13.25 44.45 44.45 0 00-19.39-4.29 47.09 47.09 0 00-19.9 4.08 45.65 45.65 0 00-15.1 11 48.78 48.78 0 00-9.59 16.33 58.78 58.78 0 00-3.37 20 55.76 55.76 0 003.47 19.7 50.36 50.36 0 009.7 16.23 45.25 45.25 0 0015.21 11 47.79 47.79 0 0020 4.08 43.54 43.54 0 0018.47-3.82 34.46 34.46 0 0013.57-11h.41v7.17c0 4.92-.51 12.78-1.53 16.88a27.77 27.77 0 01-5.1 10.65 23.92 23.92 0 01-9.59 7.07 37.87 37.87 0 01-14.8 2.56 48.86 48.86 0 01-18.17-3.57A50.51 50.51 0 01443 164.53l-14.08 19a59.57 59.57 0 0010.61 6.94 78.5 78.5 0 0012.35 5.1 87.08 87.08 0 0013.06 3.06 82.65 82.65 0 0012.55 1q14.29 0 24.7-4.08A45.6 45.6 0 00519.4 184a46.46 46.46 0 0010.1-18.17c2.17-7.14 3.26-18.49 3.26-27.34V49.32zm-150.32 98h24.49V94.84a34 34 0 011-7.14 26.31 26.31 0 013.88-8.78 24.45 24.45 0 018-7.35q5.1-3.06 13.47-3.06a29.15 29.15 0 013.37.2 34.36 34.36 0 014.18.82V47.08a11.43 11.43 0 00-2.86-.51c-1.09-.07-2.11-.1-3.06-.1a28.52 28.52 0 00-17.15 5.31 35.76 35.76 0 00-11.43 13.88h-.41V49.32h-23.48zM259 86.57a31.59 31.59 0 015.2-10.1 26.11 26.11 0 018.78-7.25 30.44 30.44 0 0125.31 0 26.19 26.19 0 018.71 7.25 31.72 31.72 0 015.2 10.1A38.23 38.23 0 01314 97.9a39.21 39.21 0 01-1.73 11.43 31.48 31.48 0 01-5.2 10.21 27.28 27.28 0 01-8.78 7.35 29.46 29.46 0 01-25.31 0 27.2 27.2 0 01-8.78-7.35 31.36 31.36 0 01-5.2-10.21 39.08 39.08 0 01-1.74-11.43A38.1 38.1 0 01259 86.57m-22.5 32.56a50.17 50.17 0 0011.33 16.43 51.62 51.62 0 0016.94 10.72 57.81 57.81 0 0041.64 0 51.66 51.66 0 0016.94-10.72 50.25 50.25 0 0011.33-16.43 52.59 52.59 0 004.18-21.23 51.87 51.87 0 00-4.18-21.13 49.41 49.41 0 00-11.33-16.23 50 50 0 00-16.94-10.41 60.82 60.82 0 00-41.64 0 49.92 49.92 0 00-16.94 10.41 49.33 49.33 0 00-11.33 16.24 51.81 51.81 0 00-4.18 21.13 52.53 52.53 0 004.18 21.23"/>
  <path fill="#00000099" d="M.39 71.63v58.74c42-7 62.43-27.54 65.94-29.37h.08c-18.05-18.66-34-24-66-29.36zM121.7 0v.12c-.56 3.4-13.2 40.35-7.54 72.67C138.71 66.27 170 36.06 172.72 29c0 0-50.52-29-51.02-29zM114 129.12c-8 25.55-5.11 45.8 7.43 72.47l51-28.86c-17.04-23.58-34.28-34.19-58.43-43.61z"/>
  <path d="M166 34.71q3.36-2.76 6.68-5.57a573.92 573.92 0 00-.07 143.63 584.7 584.7 0 00-58.54-43.65q-.6-13.82-.59-27.72 0-14.27.65-28.56A584 584 0 00165 35.57z"/>
  <path d="M120.1 10.46c.5-3.42 1-6.83 1.6-10.23a525.92 525.92 0 01-90.5 57.22C21 62.52 10.69 67.24 0 71.62 26.92 81.51 44.53 89.36 66.11 101h.14c16.39-8.58 32.14-18 48.14-28.15h-.12a536.73 536.73 0 015.83-62.39zM101.32 121Q84 110.35 66.13 101c-3.5 1.83-6.86 3.64-10.39 5.39-18.05 9-37.34 17-55.34 24a513.7 513.7 0 0172.34 37.17 529.68 529.68 0 0148.88 34.1c-3.86-23.89-7-48.1-7.47-72.52-4.22-2.77-8.54-5.48-12.83-8.14z"/>
</svg>
