<svg xmlns="http://www.w3.org/2000/svg" width="258.783" height="50.992">
  <path d="M82.005 11.993h6.792l6.678 17.654h.076l6.791-17.654h6.373L97.573 39.05h-4.77L82.006 11.993M116.38 11.993h5.852V39.05h-5.852V11.993M133.832 11.993h8.877l6.22 17.654h.076l6.258-17.654h9.078V39.05h-5.948V18.325h-.192l-7.097 20.724h-4.54l-6.83-20.724h.046v20.724h-5.948V11.993M192.159 18.97a5.858 5.858 0 0 0-2.155-1.64c-.852-.383-1.839-.574-2.959-.574-1.117 0-2.156.216-3.109.65a7.443 7.443 0 0 0-2.479 1.813c-.7.776-1.246 1.698-1.641 2.766-.396 1.068-.592 2.226-.592 3.472 0 1.272.196 2.436.592 3.49.395 1.057.933 1.972 1.621 2.748a7.358 7.358 0 0 0 2.423 1.812c.93.434 1.928.65 2.995.65 1.221 0 2.302-.255 3.245-.764a6.46 6.46 0 0 0 2.327-2.136l4.96 3.7c-1.146 1.604-2.594 2.786-4.35 3.55a13.463 13.463 0 0 1-5.417 1.144c-2.112 0-4.059-.33-5.839-.991-1.782-.662-3.32-1.61-4.618-2.842-1.298-1.236-2.308-2.73-3.034-4.485-.724-1.755-1.085-3.714-1.085-5.876 0-2.162.361-4.122 1.085-5.877.726-1.755 1.736-3.248 3.034-4.483 1.298-1.234 2.836-2.18 4.618-2.842 1.78-.661 3.727-.992 5.839-.992.761 0 1.557.07 2.384.21.825.14 1.64.361 2.441.668.802.304 1.571.712 2.308 1.22a9.222 9.222 0 0 1 1.986 1.87l-4.58 3.739M212.957 11.993h4.922L229.63 39.05h-6.716l-2.328-5.755h-10.491l-2.252 5.755h-6.563zm2.288 7.82l-3.281 8.395h6.603zM237.268 11.993h10.296c1.373 0 2.677.112 3.91.38 1.235.266 2.315.7 3.245 1.323.928.624 1.665 1.458 2.213 2.513.547 1.057.82 2.37.82 3.947 0 1.907-.496 3.529-1.488 4.862-.992 1.337-2.443 2.225-4.35 2.58l6.869 11.451h-7.136L246 28.208h-2.88v10.841h-5.852zm5.852 11.225h3.452c.535 0 1.1-.063 1.699-.1a5.338 5.338 0 0 0 1.621-.367c.483-.191.883-.5 1.201-.909.319-.406.478-.983.478-1.723 0-.686-.14-1.235-.42-1.641a2.814 2.814 0 0 0-1.068-.938c-.434-.215-.93-.316-1.488-.392-.56-.078-1.107-.069-1.642-.069h-3.833v6.14M51.272 16.6L39.27 1.617C38.525.681 36.935 0 35.738 0H16.49c-1.197 0-2.786.68-3.532 1.617L.955 16.62c-.745.936-1.138 2.64-.871 3.806l4.284 18.768c.264 1.166 1.365 2.542 2.443 3.06l17.343 8.35c1.077.52 2.843.52 3.92-.001l17.343-8.354c1.078-.518 2.178-1.896 2.444-3.063l4.284-18.767c.266-1.167-.127-2.882-.873-3.818m-14.862.679l-9.233 16.76c-.578 1.048-1.522 1.048-2.099 0l-9.235-16.76c-.577-1.049-.129-1.572.997-1.163l7.229 2.627c1.125.409 2.965.409 4.09.002l7.257-2.631c1.124-.408 1.571.116.994 1.165"/>
</svg>
