<svg xmlns="http://www.w3.org/2000/svg" width="424.9" height="78.4">
  <path fill="transparent" d="M206.9 39.4h16.5v7.7h-16.5z"/>
  <path d="M39.2 0C17.6 0 0 17.6 0 39.2s17.6 39.1 39.2 39.2c21.7 0 39.2-17.6 39.2-39.2C78.4 17.5 60.8 0 39.2 0zM17.8 19h11.4v22.3c0 1.4 1 2.5 2.3 2.5 1.2 0 2.3-1.1 2.3-2.5V19h11.1v22.3c0 1.4 1 2.5 2.3 2.5 1.2 0 2.3-1.1 2.3-2.5V19h11.1v30.3c0 6-4.9 10.8-10.8 10.8-4.2 0-7.9-2.4-9.8-6.1l-.8-1.6-.8 1.6c-1.8 3.8-5.6 6.1-9.8 6.1-6 0-10.8-4.9-10.8-10.8zm84.3-1.3l5.6 24.5 1.2 6.8 1.3-6.7 4.8-24.6h9.4l5.1 24.5 1.3 6.8 1.3-6.6 5.7-24.7h9.1l-12.1 42.7h-8.5l-5.1-24.9-1.5-8.3-1.5 8.3-5.2 24.9h-8.3L92.6 17.7zm56.1 7.6h-8.4v-7.6h8.4zm-8.4 3.7h8.4v31.4h-8.4zm11.3 5.2v-6h4.5v-8.9h8.3v8.9h5.2v6h-5.2v16.9c0 1.3.2 2.1.5 2.5.3.3 1.4.5 3.1.5h.8c.3 0 .6 0 .9-.1v6.3l-4 .1c-4 .1-6.7-.5-8.2-2.1-.9-1-1.4-2.4-1.4-4.4V34.2zm20.9 0v-6h4.5v-8.9h8.3v8.9h5.2v6h-5.2v16.9c0 1.3.2 2.1.5 2.5.3.3 1.4.5 3.1.5h.8c.3 0 .6 0 .9-.1v6.3l-4 .1c-4 .1-6.7-.6-8.2-2.1-.9-1-1.4-2.4-1.4-4.4V34.2zm79-2.8c-.7-2.9-2.3-4.9-4.9-6-1.5-.6-3.1-.9-4.8-.9-3.4 0-6.2 1.3-8.4 3.9-2.2 2.6-3.3 6.4-3.3 11.6 0 5.2 1.2 8.9 3.6 11 2.4 2.2 5.1 3.2 8.1 3.2s5.4-.9 7.3-2.6c1.9-1.7 3.1-4 3.5-6.7h-9.8v-7.1h17.6v22.7H264l-.9-5.3c-1.7 2-3.2 3.4-4.6 4.2-2.3 1.4-5.2 2.2-8.6 2.2-5.6 0-10.2-1.9-13.8-5.8-3.7-3.9-5.6-9.2-5.6-16 0-6.8 1.9-12.3 5.6-16.5 3.8-4.1 8.7-6.2 14.9-6.2 5.4 0 9.7 1.4 12.9 4.1 3.3 2.7 5.1 6.1 5.6 10.2zm30.5-3h.7v8.4c-.5-.1-1-.1-1.4-.1h-1c-3.3 0-5.5 1.1-6.6 3.2-.6 1.2-.9 3.1-.9 5.6v14.9h-8.2V29.2h7.8v5.5c1.3-2.1 2.4-3.5 3.3-4.3 1.5-1.3 3.5-1.9 6-1.9.1-.1.2-.1.3-.1zm13.4.1v18.8c0 1.8.2 3.1.6 4 .7 1.6 2.2 2.4 4.4 2.4 2.8 0 4.7-1.1 5.7-3.4.5-1.2.8-2.8.8-4.8v-17h8.3v31.3h-7.9v-4.4c-.1.1-.3.4-.6.9s-.7.9-1.1 1.3c-1.3 1.1-2.5 1.9-3.7 2.4-1.2.4-2.6.6-4.2.6-4.6 0-7.7-1.7-9.4-5-.9-1.8-1.3-4.5-1.3-8.1v-19zm44.2 9c-1.1-1.9-2.9-2.8-5.3-2.8-3 0-5 1.4-6.1 4.2-.6 1.5-.9 3.4-.9 5.7 0 3.6 1 6.2 2.9 7.7 1.2.9 2.5 1.3 4.1 1.3 2.3 0 4-.9 5.2-2.6 1.2-1.8 1.8-4.1 1.8-7 0-2.6-.6-4.7-1.7-6.5zm6.3-5.9c2.5 2.7 3.8 6.7 3.8 11.9 0 5.5-1.2 9.7-3.7 12.6-2.5 2.9-5.7 4.3-9.6 4.3-2.5 0-4.6-.6-6.2-1.9-.9-.7-1.8-1.7-2.6-3v16.3H329V28.2h7.8v4.6c.9-1.4 1.8-2.4 2.8-3.2 1.8-1.4 4-2.1 6.5-2.1 3.7 0 6.8 1.4 9.3 4.1zm26.8 5.9c-1.1-1.9-2.9-2.8-5.3-2.8-3 0-5 1.4-6.1 4.2-.6 1.5-.9 3.4-.9 5.7 0 3.6 1 6.2 2.9 7.7 1.1.9 2.5 1.3 4.1 1.3 2.3 0 4-.9 5.2-2.6 1.2-1.8 1.8-4.1 1.8-7 0-2.6-.6-4.7-1.7-6.5zm6.3-5.9c2.5 2.7 3.8 6.7 3.8 11.9 0 5.5-1.2 9.7-3.7 12.6-2.5 2.9-5.6 4.3-9.6 4.3-2.5 0-4.6-.6-6.2-1.9-.9-.7-1.8-1.7-2.6-3v16.3h-8.1V28.2h7.8v4.6c.9-1.4 1.8-2.4 2.8-3.2 1.8-1.4 4-2.1 6.5-2.1 3.7 0 6.8 1.4 9.3 4.1zm17.1 4.2c-1 1.2-1.7 2.8-1.9 4.8h12.7c-.1-2.2-.8-3.8-2-4.9-1.2-1.1-2.6-1.7-4.4-1.7-1.9 0-3.4.6-4.4 1.8zm11.4-7c2.1 1 3.8 2.5 5.2 4.6 1.2 1.9 2 4 2.4 6.5.2 1.4.3 3.5.3 6.2h-21.4c.1 3.1 1.1 5.3 3 6.6 1.1.8 2.5 1.2 4.1 1.2 1.7 0 3-.5 4.1-1.4.6-.5 1.1-1.2 1.5-2.2h8.3c-.2 1.9-1.2 3.7-2.9 5.7-2.7 3-6.4 4.6-11.2 4.6-4 0-7.5-1.3-10.5-3.8-3-2.6-4.6-6.7-4.6-12.5 0-5.4 1.4-9.6 4.1-12.4 2.8-2.9 6.3-4.3 10.7-4.3 2.5-.3 4.8.2 6.9 1.2z"/>
</svg>
